<?xml version="1.0" encoding="utf-8"?>
<!-- Generator: Adobe Illustrator 27.0.0, SVG Export Plug-In . SVG Version: 6.00 Build 0)  -->
<svg version="1.1" id="Ebene_1" xmlns="http://www.w3.org/2000/svg" xmlns:xlink="http://www.w3.org/1999/xlink" x="0px" y="0px"
	 viewBox="0 0 587.5 586" style="enable-background:new 0 0 587.5 586;" xml:space="preserve">
<style type="text/css">
	.st0{fill:#FFFFFF;}
	.st1{fill:#FCC02D;}
	.st2{fill:#B83A4B;}
</style>
<g>
	<g>
		
			<image style="overflow:visible;opacity:0.45;enable-background:new    ;" width="585" height="585" xlink:href="CA2041CD9E6C0D85.png"  transform="matrix(0.9659 0.2588 -0.2588 0.9659 86.6022 -67.2035)">
		</image>
		<g>
			<path class="st0" d="M226,544.6c139.8,37.5,283.4-45.5,320.9-185.3S501.4,75.9,361.6,38.5S78.2,83.9,40.7,223.7
				S86.2,507.1,226,544.6L226,544.6z"/>
		</g>
	</g>
	<path class="st1" d="M226,544.6l-0.6,2.4c141.1,37.8,286.1-45.9,323.9-187c37.8-141.1-45.9-286.1-187-323.9S76.1,81.9,38.3,223.1
		s45.9,286.1,187,323.9L226,544.6l0.6-2.4c-69.3-18.6-124.3-63.3-157.6-120.9S24.6,293.6,43.1,224.4S106.5,100,164,66.8
		S291.7,22.3,361,40.9s124.3,63.3,157.6,120.9s44.5,127.7,25.9,196.9c-18.6,69.3-63.3,124.3-120.9,157.6
		c-57.6,33.2-127.7,44.5-196.9,25.9L226,544.6L226,544.6z"/>
	<g>
		<path d="M245.9,234.5c-0.1-5.6-2-10.1-5.9-13.4c-4-3.2-11.1-6.4-21.7-9.3c-10.5-2.9-18.1-6.2-23-9.7c-6.9-4.9-10.3-11.4-10.3-19.3
			c0-7.8,3.1-14.1,9.6-19c6.4-4.8,14.6-7.3,24.5-7.3c6.7,0,12.8,1.4,18.1,3.9s9.4,6.2,12.4,10.9c2.9,4.6,4.4,9.9,4.4,15.6l-8.6,0
			c0-6.9-2.3-12.5-7.1-16.7c-4.8-4.2-11.1-6.3-19.1-6.4c-7.8,0-13.9,1.8-18.6,5.2c-4.5,3.4-6.9,8-6.9,13.6c0,5.2,2.1,9.3,6.2,12.6
			c4.1,3.3,10.8,6.1,19.8,8.6c9.1,2.4,16,5.1,20.7,7.7c4.7,2.7,8.3,5.8,10.6,9.6c2.4,3.8,3.5,8.1,3.5,13.2c0,8-3.2,14.4-9.6,19.3
			c-6.4,4.8-14.8,7.2-25.2,7.2c-7.2,0-13.7-1.3-19.7-3.8c-5.9-2.5-10.5-6.1-13.6-10.7c-3.1-4.6-4.6-9.8-4.7-15.8l8.6,0
			c0,7.2,2.7,12.8,8,16.9c5.3,4.1,12.4,6.2,21.3,6.2c7.9,0,14.2-1.8,19-5.3C243.5,244.8,246,240.2,245.9,234.5z"/>
		<path d="M300.4,260.8c-6.4,0-12.2-1.6-17.4-4.8c-5.2-3.1-9.3-7.6-12.1-13.2c-2.8-5.6-4.3-12-4.3-19l0-3c0-7.3,1.4-13.8,4.2-19.6
			c2.8-5.8,6.7-10.4,11.8-13.7c5-3.3,10.4-5,16.3-4.9c9.1,0,16.4,3.2,21.8,9.4c5.4,6.2,8,14.8,8,25.7l0,4.7l-53.8,0l0,1.6
			c0,8.6,2.4,15.7,7.3,21.3c4.9,5.7,11.1,8.6,18.5,8.6c4.5,0,8.4-0.9,11.8-2.4c3.4-1.7,6.5-4.3,9.3-7.8l5.2,4
			C320.9,256.3,312,260.8,300.4,260.8z M298.8,189.8c-6.3,0-11.6,2.3-15.8,6.9c-4.3,4.6-6.9,10.8-7.9,18.5l45.2,0l0-0.9
			c-0.2-7.2-2.3-13.1-6.2-17.7C310.2,192,305.1,189.7,298.8,189.8z"/>
		<path d="M344.4,162.2c0-1.6,0.5-2.9,1.6-3.9c1-1.1,2.4-1.6,4.2-1.7c1.8,0,3.2,0.5,4.2,1.6s1.5,2.4,1.5,3.9s-0.6,2.9-1.6,3.9
			c-1,1.1-2.5,1.6-4.2,1.6c-1.8,0-3.2-0.5-4.2-1.6C344.9,165.2,344.4,163.8,344.4,162.2z M354.2,259.5l-8.4,0l0-75.4l8.4,0
			L354.2,259.5z"/>
		<path d="M389.8,164.7l0,19.3l15.6,0l0,6.8l-15.6,0l0,50.3c0,4.1,0.7,7.3,2.3,9.3c1.5,2.1,4,3.1,7.6,3.1c1.4,0,3.7-0.3,6.7-0.7
			l0.4,6.7c-2.2,0.8-5.2,1.2-8.9,1.1c-5.7,0-9.9-1.6-12.4-5c-2.6-3.3-3.9-8.2-3.9-14.7l0-50.3l-13.9,0.2l0-6.8l13.9,0l0-19.3
			L389.8,164.7z"/>
	</g>
	<g>
		<path class="st2" d="M153,421.9l15.6-1.9l0-76l-15.9,0.3l0-8.6l29.7-6.4l0,90.8l15.6,1.9l0,8.8l-45,0L153,421.9z"/>
		<path class="st2" d="M239.2,421.4c6.6,0,11.9-2.5,15.7-7.6c3.8-5.1,5.8-13.1,6-24.4l-0.3-0.4c-1.9,3.1-4.5,5.5-7.8,7.2
			c-3.4,1.7-7.1,2.5-11.3,2.5c-9.9,0-17.7-3.1-23.4-9.2c-5.7-6.1-8.6-14.7-8.5-25.8c0-10.6,3.1-19.3,9.1-26
			c6.2-6.7,13.5-10.2,22.3-10.2c10.6,0,19,3.3,25.1,9.9c6.1,6.6,9.2,16.4,9.2,29.4l0,18.3c0,15.8-3.3,27.6-9.8,35.3
			c-6.5,7.7-15.2,11.5-26.1,11.5c-3.5,0-7.1-0.4-10.8-1c-3.7-0.7-7-1.7-9.9-3.1l2.1-10.4c2.8,1.4,5.7,2.4,8.7,2.8
			C232.1,421.2,235.5,421.5,239.2,421.4z M241.4,388.1c5.1,0,9.3-1.1,12.7-3.2c3.4-2.2,5.8-5,7.3-8.4l0-10.8c0-9-1.7-15.8-5.1-20.3
			c-3.4-4.5-8.4-6.8-14.9-6.8c-5.1,0-9.3,2.4-12.9,7.1s-5.3,10.8-5.3,18.2c0,7.3,1.6,13.2,4.8,17.5
			C231.3,385.9,235.8,388.1,241.4,388.1z"/>
		<path class="st2" d="M319.7,421.5c6.6,0,11.9-2.5,15.7-7.6c3.8-5.1,5.8-13.1,6-24.4l-0.3-0.4c-1.9,3.1-4.5,5.5-7.8,7.2
			c-3.4,1.7-7.1,2.5-11.3,2.5c-9.9,0-17.7-3.1-23.4-9.2c-5.7-6.1-8.6-14.7-8.5-25.8c0-10.6,3.1-19.3,9.1-26
			c6.2-6.7,13.5-10.2,22.3-10.2c10.6,0,19,3.3,25.1,9.9c6.1,6.6,9.2,16.4,9.2,29.4l0,18.3c0,15.8-3.3,27.6-9.8,35.3
			c-6.5,7.7-15.2,11.5-26.1,11.5c-3.5,0-7.1-0.4-10.8-1c-3.7-0.7-7-1.7-9.9-3.1l2.1-10.4c2.8,1.4,5.7,2.4,8.7,2.8
			C312.8,421.2,316.1,421.4,319.7,421.5z M322.1,388c5.1,0,9.3-1.1,12.7-3.2c3.4-2.2,5.8-5,7.3-8.4l0-10.8c0-9-1.7-15.7-5.1-20.3
			c-3.4-4.5-8.4-6.8-14.9-6.8c-5.1,0-9.3,2.4-12.9,7.1s-5.3,10.8-5.3,18.2c0,7.3,1.6,13.2,4.8,17.5
			C311.9,385.8,316.4,388.1,322.1,388z"/>
		<path class="st2" d="M438.7,340.1c-12.3,14.6-20.5,27.5-24.9,38.8c-4.3,11.3-7.4,24.9-9.3,41l-1.1,11l-13.8,0l1.1-11
			c1.9-16,5.7-30.2,11.4-42.8c5.6-12.6,13.3-24.9,23-36.9l-42.4,0l-1,11.6l-11.7,0l0-22.5l68.6-0.1L438.7,340.1z"/>
	</g>
</g>
</svg>
