<svg width="48" height="48" xmlns="http://www.w3.org/2000/svg">
    <symbol width="48" height="48" viewBox="0 0 48 48" xmlns="http://www.w3.org/2000/svg"
        fill="inherit"
        id="phoneSolid">

        <path
            d="M6.8641 1.24179C2.13059 2.56838 1.25624 2.99048 0.442197 4.58842C-0.0401997 5.46276 -0.0703495 6.03561 0.0803994 8.56819C0.803994 19.3317 5.29631 29.0399 12.9845 36.4266C20.3411 43.4816 29.386 47.4313 39.7274 48.1247C42.1695 48.2755 42.7423 48.2453 43.6167 47.7629C45.2146 46.9187 45.6367 46.0745 46.9633 41.1903C48.3201 36.1251 48.3502 34.9794 47.0236 33.7131C45.8779 32.5976 36.8933 28.8891 35.3556 28.8891C33.7276 28.8891 32.9135 29.462 30.6523 32.3262C29.3257 34.0146 28.6322 34.6779 28.3006 34.5573C26.1901 33.7734 22.6626 31.2107 19.8285 28.3766C16.9944 25.5425 14.4317 22.015 13.6478 19.9347C13.5272 19.603 14.2508 18.8191 15.9995 17.4322C18.8034 15.171 19.3763 14.357 19.3461 12.7289C19.2858 11.2214 15.4869 2.20659 14.4618 1.18149C13.1353 -0.145097 11.869 -0.114947 6.8641 1.24179Z" />
    </symbol>


    <symbol width="48" height="48" viewBox="0 0 48 48" xmlns="http://www.w3.org/2000/svg"
        fill="inherit"
        id="phone">

        <path clip-rule="evenodd"
            d="M7.64036 1.14537C4.78783 1.78621 2.18196 2.45637 1.84925 2.63472C1.51653 2.81306 0.943792 3.38135 0.576357 3.89826C-0.0471062 4.77487 -0.0800145 5.06204 0.0842295 8.20638C0.383129 13.9383 1.56454 18.7043 3.94879 23.8005C7.85985 32.1592 15.6623 40.0929 23.7508 43.9358C28.9966 46.4281 35.4824 48 40.5203 48C43.3882 48 44.6991 47.5804 45.2912 46.4729C45.7951 45.5304 48 35.0348 48 33.579C48 31.4528 47.1386 30.8053 40.6422 28.0488C37.2411 26.6054 34.5278 25.6311 33.9097 25.6311C32.3681 25.6311 31.4183 26.2614 29.6285 28.4726C28.7403 29.5699 27.8837 30.4676 27.7249 30.4676C27.1003 30.4676 23.6255 27.8426 21.8158 26.0038C20.0036 24.1626 17.5062 20.8336 17.5062 20.2593C17.5062 20.113 18.4014 19.266 19.4955 18.3773C23.2167 15.3544 23.2275 15.0612 19.911 7.25359C16.4111 -0.985112 16.6321 -0.87508 7.64036 1.14537ZM15.8055 9.20875C16.9162 11.8141 17.7193 14.0326 17.5901 14.1384C13.3186 17.637 12.8131 18.3727 13.0423 20.7595C13.1552 21.9351 13.526 22.7153 14.8985 24.6656C17.1043 27.7994 20.6808 31.3539 23.5098 33.2242C27.6839 35.9834 28.9679 35.8691 32.1492 32.4545L34.2627 30.1862L38.7577 32.132C41.2301 33.2021 43.319 34.1443 43.4003 34.2256C43.5597 34.3852 42.0453 41.9822 41.6392 43.061C41.4142 43.658 41.2298 43.7016 39.4886 43.571C26.449 42.5922 14.8614 34.9423 8.63246 23.2005C6.25697 18.7219 4.52365 12.3628 4.52365 8.12507V6.41687L8.67504 5.47798C10.9584 4.96138 13.0423 4.52368 13.3062 4.50524C13.6485 4.48105 14.3641 5.82712 15.8055 9.20875Z" />

    </symbol>

    <symbol width="48" height="49" viewBox="0 0 48 49" xmlns="http://www.w3.org/2000/svg"
        fill="inherit"
        id="modalClose">
        <path
            d="M1.30037 1.22877C0.0942867 1.70912 -0.291661 3.1982 0.431991 4.59121C0.817938 5.35977 5.40106 10.1633 10.5631 15.303C15.7734 20.4427 20.0188 24.8619 20.0188 25.1501C20.0188 25.4383 15.6769 29.9536 10.3219 35.2375C5.01512 40.5213 0.431991 45.2287 0.190774 45.661C-0.339904 46.6698 0.28726 48.1588 1.4451 48.6392C2.8924 49.1676 4.7739 47.6305 14.2296 38.1676C19.3917 32.9798 23.83 28.7528 24.1195 28.7528C24.3607 28.7528 29.1368 33.268 34.7331 38.8401C40.3293 44.3641 45.1536 48.9274 45.4913 48.9274C46.2632 48.9274 48 47.1981 48 46.4296C48 46.0933 43.4651 41.2899 37.8689 35.7178C32.2726 30.1458 27.7378 25.3903 27.7378 25.1501C27.7378 24.8619 31.9832 20.4427 37.1935 15.303C46.6974 5.88815 48.2412 4.01479 47.7105 2.57375C47.2281 1.42091 45.7326 0.796456 44.7677 1.32484C44.2853 1.56501 39.5574 6.12833 34.2506 11.4122C28.9439 16.744 24.409 21.0672 24.1195 21.0672C23.83 21.0672 19.3917 16.8401 14.2296 11.6523C6.31769 3.72658 2.8924 0.700386 2.07227 0.940561C1.97578 0.940561 1.63808 1.08467 1.30037 1.22877Z" />
    </symbol>


    <symbol width="45" height="40" viewBox="0 0 55 41" id='map' fill="inherit"
        xmlns="http://www.w3.org/2000/svg">
        <path
            d="M9.625 2.53361C0.825 5.96338 0.733333 5.9927 0.336111 6.78418C0.0916667 7.31184 0 12.0608 0 22.9657C0 39.4989 0 39.4403 1.55833 40.2904C2.26111 40.6715 2.75 40.5249 8.8 38.2384L15.2778 35.776V18.0995C15.2778 8.39647 15.1861 0.452298 15.0639 0.481612C14.9111 0.481612 12.4972 1.41967 9.625 2.53361Z" />
        <path
            d="M45.375 38.371C54.175 34.9412 54.2667 34.9119 54.6639 34.1204C54.9083 33.5928 55 28.8439 55 17.9389C55 1.40569 55 1.46432 53.4417 0.614206C52.7389 0.23312 52.25 0.379691 46.2 2.6662L39.7222 5.1286V22.8051C39.7222 32.5081 39.8139 40.4523 39.9361 40.423C40.0889 40.423 42.5028 39.4849 45.375 38.371Z" />
        <path
            d="M18.3333 17.9529V35.4829L27.2861 37.9159C32.175 39.2351 36.3 40.3197 36.4528 40.3197C36.575 40.3197 36.6667 32.4342 36.6667 22.7898V5.28915L27.7139 2.85607C22.825 1.53693 18.7 0.452297 18.5778 0.452297C18.425 0.452297 18.3333 8.33784 18.3333 17.9529Z" />
    </symbol>

    <symbol width="48" height="48" viewBox="0 0 48 48" fill="inherit"
        xmlns="http://www.w3.org/2000/svg" id="globe">
        <path fill-rule="evenodd" clip-rule="evenodd"
            d="M18.8342 0.352932C14.1721 1.41477 10.7875 3.33735 7.11457 7.01048C3.29447 10.8302 1.54629 14.0599 0.432638 19.3543C-0.706156 24.7671 0.448388 31.5015 3.36382 36.4522C4.69524 38.7127 9.35491 43.3714 11.6055 44.6919C15.6395 47.0584 20.5654 48.2211 25.4725 47.9652C29.1157 47.7753 31.3854 47.2238 34.4262 45.79C40.6124 42.8729 45.156 37.5682 47.2901 30.7726C47.8982 28.836 48 27.8817 48 24.1202C48 19.294 47.615 17.2836 46.0474 13.9203C44.3144 10.2036 41.2463 6.51651 37.8775 4.10269C36.1211 2.84459 32.7075 1.24759 30.4335 0.620664C27.933 -0.0689566 21.3531 -0.220994 18.8342 0.352932ZM25.9877 5.19209C27.3051 6.30057 28.6596 8.56508 29.6836 11.3711C31.1416 15.3656 31.6492 15.0342 24.0732 15.0342C18.6494 15.0342 17.5615 14.9625 17.5615 14.6042C17.5615 13.7437 19.4347 8.8952 20.3276 7.44388C22.133 4.50974 24.1995 3.68746 25.9877 5.19209ZM14.9774 8.21255C14.5513 9.17596 13.8834 11.071 13.4933 12.4236L12.784 14.8828L9.72108 14.9691C8.03651 15.0167 6.65815 14.9852 6.65815 14.8992C6.65815 14.3171 9.03689 11.2254 10.5949 9.7832C12.2504 8.25071 15.4114 6.12036 15.6607 6.36932C15.711 6.4199 15.4035 7.24914 14.9774 8.21255ZM36.3322 8.63504C38.4699 10.368 41.4825 13.9815 41.4871 14.8177C41.4877 14.9485 40.1099 15.0167 38.4253 14.9691L35.3624 14.8828L34.6231 12.3085C34.2167 10.8926 33.5506 9.00211 33.143 8.10745C32.7356 7.21279 32.4022 6.42656 32.4022 6.35993C32.4022 6.07221 35.0923 7.62953 36.3322 8.63504ZM12.1098 23.9687V28.6631H8.64467C6.73871 28.6631 5.10502 28.5426 5.01386 28.3951C4.55229 27.6482 4.28122 23.8134 4.5538 21.8893C4.71614 20.7453 4.9233 19.6893 5.01416 19.5421C5.10502 19.3949 6.73871 19.2743 8.64467 19.2743H12.1098V23.9687ZM31.6477 21.4219C31.7664 22.6034 31.7676 24.7183 31.6507 26.1218L31.4384 28.6737L24.1214 28.5928L16.8043 28.5117L16.7195 24.2861C16.6732 21.9623 16.7029 19.8837 16.7858 19.6675C16.9037 19.3604 18.5222 19.2743 24.1844 19.2743H31.4321L31.6477 21.4219ZM43.3497 20.1072C43.7804 21.1866 43.7804 26.7508 43.3497 27.8302L43.0178 28.6631H39.5805H36.1432L36.1344 23.9687L36.126 19.2743H39.5717H43.0178L43.3497 20.1072ZM13.3001 34.7961C13.6251 36.1008 14.7984 39.3606 15.6607 41.3537C15.7727 41.6126 15.2194 41.4382 14.2432 40.9073C12.1428 39.764 8.85153 36.6941 7.64429 34.7522L6.68328 33.2061H9.79346H12.9039L13.3001 34.7961ZM30.5849 33.6074C30.5849 33.8281 30.2457 35.006 29.8311 36.2253C28.5917 39.8685 26.8796 42.4352 25.0512 43.3902C22.9217 44.5023 20.1965 41.4521 18.2769 35.8089C17.8834 34.6522 17.5615 33.5934 17.5615 33.4559C17.5615 33.3184 20.4918 33.2061 24.0732 33.2061C29.2768 33.2061 30.5849 33.2866 30.5849 33.6074ZM40.9755 34.1904C40.0357 35.881 35.7001 40.0308 33.9495 40.9149C32.9667 41.4116 32.3858 41.5784 32.4903 41.3343C34.0725 37.6354 34.5223 36.4149 34.8433 34.9475L35.2243 33.2061H38.3736H41.5225L40.9755 34.1904Z" />
    </symbol>


    <symbol width="16" height="16" viewBox="0 0 16 16" xmlns="http://www.w3.org/2000/svg" id='clock'>
        <path
            d="M6.98605 0.585954C4.1679 0.943741 1.74562 2.99631 0.859652 5.75503C-0.243099 9.17283 1.35919 13.052 4.51664 14.6526C6.75984 15.7825 9.2481 15.7825 11.4913 14.6526C14.1586 13.3062 15.8363 10.1426 15.4593 7.18617C14.9975 3.6648 12.3961 1.02848 8.94649 0.576539C8.13592 0.472969 7.81546 0.472969 6.98605 0.585954ZM9.45545 2.08301C13.3198 3.07163 15.2614 7.33682 13.4235 10.8205C11.84 13.8335 8.17362 14.9916 5.18583 13.4286C2.17918 11.8468 1.01988 8.17479 2.58447 5.20893C3.904 2.69501 6.75984 1.39568 9.45545 2.08301Z" />
        <path
            d="M7.81547 3.37292C7.74007 3.40117 7.59869 3.4859 7.51386 3.57064C7.36306 3.70246 7.34421 3.93784 7.34421 5.99041C7.34421 7.66636 7.37248 8.29719 7.46674 8.41018C7.52329 8.49491 8.25845 9.01276 9.08787 9.55886C10.6807 10.6134 10.9541 10.717 11.3028 10.3686C11.5384 10.1332 11.5479 9.67184 11.3217 9.44587C11.2274 9.36113 10.5959 8.90919 9.90787 8.44784L8.66374 7.60045V5.66087C8.66374 3.91901 8.64489 3.69304 8.50351 3.57064C8.29616 3.39175 8.00397 3.30701 7.81547 3.37292Z" />
    </symbol>

    <symbol width="48" height="48" viewBox="0 0 48 48" id='instagram'
        xmlns="http://www.w3.org/2000/svg">
        <path
            d="M24.0054 11.6934C17.1949 11.6934 11.7015 17.188 11.7015 24C11.7015 30.812 17.1949 36.3066 24.0054 36.3066C30.8158 36.3066 36.3092 30.812 36.3092 24C36.3092 17.188 30.8158 11.6934 24.0054 11.6934ZM24.0054 32.0009C19.6042 32.0009 16.0062 28.4128 16.0062 24C16.0062 19.5872 19.5935 15.9991 24.0054 15.9991C28.4172 15.9991 32.0045 19.5872 32.0045 24C32.0045 28.4128 28.4065 32.0009 24.0054 32.0009ZM39.6823 11.19C39.6823 12.7859 38.3973 14.0605 36.8125 14.0605C35.217 14.0605 33.9427 12.7752 33.9427 11.19C33.9427 9.60482 35.2277 8.31954 36.8125 8.31954C38.3973 8.31954 39.6823 9.60482 39.6823 11.19ZM47.8313 14.1033C47.6493 10.2582 46.7712 6.85217 43.9549 4.04597C41.1494 1.23976 37.7441 0.361486 33.8998 0.168694C29.9378 -0.0562312 18.0622 -0.0562312 14.1002 0.168694C10.2666 0.350775 6.86135 1.22905 4.04506 4.03526C1.22878 6.84146 0.361405 10.2475 0.168656 14.0926C-0.0562186 18.0556 -0.0562186 29.9337 0.168656 33.8967C0.350697 37.7418 1.22878 41.1478 4.04506 43.954C6.86135 46.7602 10.2559 47.6385 14.1002 47.8313C18.0622 48.0562 29.9378 48.0562 33.8998 47.8313C37.7441 47.6492 41.1494 46.7709 43.9549 43.954C46.7605 41.1478 47.6386 37.7418 47.8313 33.8967C48.0562 29.9337 48.0562 18.0663 47.8313 14.1033ZM42.7128 38.1488C41.8775 40.2481 40.2606 41.8654 38.151 42.7116C34.9921 43.9647 27.4963 43.6756 24.0054 43.6756C20.5144 43.6756 13.0079 43.954 9.85968 42.7116C7.76085 41.8762 6.14389 40.2588 5.29794 38.1488C4.04506 34.9892 4.33419 27.4917 4.33419 24C4.33419 20.5083 4.05577 13.0001 5.29794 9.85117C6.13319 7.75187 7.75014 6.13455 9.85968 5.28841C13.0186 4.03526 20.5144 4.32444 24.0054 4.32444C27.4963 4.32444 35.0028 4.04597 38.151 5.28841C40.2499 6.12384 41.8668 7.74116 42.7128 9.85117C43.9656 13.0108 43.6765 20.5083 43.6765 24C43.6765 27.4917 43.9656 34.9999 42.7128 38.1488Z" />
    </symbol>

    <symbol width="48" height="48" viewBox="0 0 48 48" id='google'
        xmlns="http://www.w3.org/2000/svg">
        <path
            d="M22.0541 0.128104C19.4278 0.345491 15.3935 1.47901 13.3527 2.58148C6.48649 6.26154 2.08833 11.867 0.427159 19.0719C0.0632828 20.6557 0.0158207 21.1992 0 23.8855C0 26.4941 0.0474621 27.1618 0.363876 28.6991C1.67699 34.9412 5.15755 40.1119 10.584 43.8386C13.2261 45.6553 15.6783 46.6801 19.3171 47.5031C21.3263 47.9534 21.7218 48 24.1898 48C31.3566 47.9845 37.1945 45.7485 41.6084 41.3231C45.706 37.2082 47.9842 31.2922 48 24.6774C48 23.5283 47.9209 22.1464 47.826 21.6029L47.6519 20.6247H36.0712C29.6955 20.6247 24.443 20.6557 24.4113 20.6868C24.3797 20.7178 24.3639 22.5812 24.3955 24.8016L24.443 28.8543H31.3408H38.2386L38.1279 29.5065C37.9697 30.4848 36.973 32.6276 36.1345 33.7922C34.7264 35.7486 31.9895 37.7051 29.6322 38.4505C27.7811 39.025 26.8952 39.1492 24.5063 39.1647C21.88 39.1803 20.6777 38.9474 18.2571 37.9381C15.0613 36.6182 12.1978 33.8853 10.6473 30.6556C8.03691 25.1898 8.93869 18.5129 12.9097 13.9943C15.9789 10.4851 21.3738 8.41989 25.9934 8.96336C28.5564 9.27392 30.7238 10.1279 32.9545 11.7118L34.1094 12.5503L37.2419 9.6C38.9664 7.96959 40.4535 6.55657 40.5485 6.43235C40.6908 6.26154 40.5326 6.05968 39.7416 5.40752C35.9288 2.27093 31.7047 0.593935 26.468 0.128104C24.5221 -0.0427011 24.1107 -0.0427011 22.0541 0.128104Z" />
    </symbol>

    <symbol width="48" height="48" viewBox="0 0 48 48" id='facebook'
        xmlns="http://www.w3.org/2000/svg">
        <path
            d="M19.0024 0.396517C9.50697 2.53177 2.04181 10.2877 0.261411 19.865C-0.238349 22.5026 0.011531 27.9035 0.729936 30.5726C1.9481 35.1885 5.22777 40.1812 8.94474 43.1643C11.6934 45.3623 17.6905 48 19.9082 48C20.1581 48 20.2518 45.5507 20.2518 39.6788V31.3576H17.1283H14.0048V27.7465V24.1355H17.0971H20.1893L20.3143 19.8022C20.408 15.8771 20.5017 15.3747 21.2513 13.8988C22.2508 11.952 23.9063 10.5075 25.8429 9.84813C27.4358 9.31432 32.8707 9.18872 34.1514 9.69113C34.9322 10.0051 34.9635 10.0365 34.8698 12.894L34.7761 15.8143L32.246 15.9713C28.4666 16.1911 27.7482 17.1645 27.7482 21.8432V24.1355H31.184H34.6511L34.4637 25.1403C34.37 25.7055 34.1201 27.3069 33.9015 28.6886L33.5267 31.2006L30.6218 31.2948L27.7482 31.389V39.6788C27.7482 45.5507 27.8419 48 28.0918 48C30.3095 48 36.3066 45.3623 39.0553 43.1643C42.7722 40.1812 46.0519 35.1885 47.2701 30.5726C47.9885 27.9035 48.2384 22.5026 47.7386 19.865C45.9582 10.1935 38.4618 2.46896 28.9039 0.427918C26.3739 -0.137295 21.4075 -0.137295 19.0024 0.396517Z"
        />
    </symbol>
    <symbol width="135" height="74" viewBox="0 0 135 74" xmlns="http://www.w3.org/2000/svg"
        id='accordion'>
        <path
            d="M32.2 32.3C10.6 53.9 0 65.3 0 66.7C0 70.2 3.8 74 7.3 74C10.2 74 13.6 70.9 38.5 46C53.9 30.6 66.9 18 67.5 18C68.1 18 81.1 30.6 96.5 46C121.4 70.9 124.8 74 127.7 74C131.2 74 135 70.2 135 66.7C135 65.3 124.4 53.9 102.8 32.3C74.6 4 70.2 -1.10269e-06 67.5 -1.10269e-06C64.8 -1.10269e-06 60.4 4 32.2 32.3Z" />
    </symbol>

    <symbol width="161" height="121" viewBox="0 0 161 121" xmlns="http://www.w3.org/2000/svg"
        id='email'>
        <path
            d="M8.3 2.09997C0.399999 5.99997 -2.2 16.7 3.2 23.5C5.9 27 73.6 78 77.1 79.2C79 79.9 81 79.9 82.8 79.2C86.3 78 154.1 27 156.8 23.5C162.2 16.7 159.6 5.89997 151.6 2.09997C147.5 -2.56021e-05 146 -2.56021e-05 79.9 -2.56021e-05C13.7 -2.56021e-05 12.4 -2.56021e-05 8.3 2.09997Z"
        />
        <path
            d="M0 68.7C0 89.7 0.4 102.9 1.1 105.5C2.6 110.7 9.3 117.4 14.5 118.9C20.1 120.4 139.9 120.4 145.5 118.9C150.7 117.4 157.4 110.7 158.9 105.5C160 101.5 160.6 36 159.5 36C159.2 36 143.3 47.7 124.1 62C105 76.2 88.1 88.4 86.6 89C83.1 90.3 76.9 90.3 73.4 89C71.9 88.4 55 76.2 35.9 62C16.7 47.7 0.8 36 0.5 36C0.2 36 0 50.7 0 68.7Z" />
    </symbol>

    <symbol width="160" height="159" viewBox="0 0 160 159" id='radar'
        xmlns="http://www.w3.org/2000/svg">
        <path
            d="M68.65 0.679902C46.55 3.7799 25.45 16.7799 13.25 34.9799C8.65 41.9799 3.55 53.4799 1.65 61.3799C-0.55 70.4799 -0.55 88.8799 1.65 97.9799C7.35 121.78 23.95 141.78 46.85 152.28C57.55 157.28 65.85 158.98 79.25 158.98C92.65 158.98 100.95 157.28 111.65 152.28C139.05 139.68 155.75 115.88 158.75 85.3799C159.35 79.6799 159.15 78.1799 157.65 76.5799C153.95 72.4799 149.25 75.6799 149.25 82.4799C149.25 94.4799 141.85 113.78 133.25 124.18C120.35 139.68 99.15 149.68 79.25 149.68C68.95 149.68 58.85 147.18 48.75 142.18C33.35 134.58 24.25 125.58 16.65 110.18C6.75 90.0799 6.75 69.2799 16.75 49.1799C24.35 33.7799 33.35 24.7799 48.75 17.0799C68.75 7.2799 90.65 7.2799 110.95 17.2799C114.85 19.2799 119.75 22.2799 121.75 23.9799L125.35 27.1799L120.05 32.4799L114.65 37.7799L110.65 34.9799C93.45 22.7799 70.65 21.8799 51.35 32.5799C44.35 36.4799 35.05 46.3799 31.45 53.5799C28.55 59.2799 28.35 60.2799 29.65 62.0799C31.75 65.2799 35.35 64.7799 37.75 60.8799C47.85 44.2799 59.85 36.1799 75.85 34.9799C85.95 34.1799 98.45 37.5799 105.75 43.1799C107.55 44.6799 107.45 44.8799 102.35 50.0799L96.95 55.5799L93.45 53.6799C75.85 44.2799 54.25 54.3799 50.25 73.8799C46.15 94.4799 64.35 112.78 85.05 108.68C97.05 106.28 105.95 97.1799 108.35 84.8799C109.35 79.2799 109.35 78.4799 107.75 76.6799C103.95 72.4799 99.85 75.2799 98.95 82.5799C98.25 88.3799 93.85 94.3799 88.25 97.4799C78.85 102.48 66.75 98.5799 61.55 88.7799C53.85 74.1799 66.95 56.8799 83.45 60.0799C90.35 61.3799 90.25 61.9799 81.95 70.4799C77.75 74.8799 74.25 78.9799 74.25 79.5799C74.25 81.0799 77.95 84.6799 79.45 84.6799C81.05 84.6799 154.25 11.4799 154.25 9.8799C154.25 8.3799 150.65 4.6799 149.15 4.6799C148.55 4.6799 144.55 8.0799 140.25 12.2799L132.45 19.8799L127.05 15.8799C111.15 3.8799 88.25 -2.1201 68.65 0.679902Z" />
        <path
            d="M24.25 74.6799C19.95 78.9799 23.15 86.6799 29.25 86.6799C33.05 86.6799 36.25 83.4799 36.25 79.6799C36.25 75.8799 33.05 72.6799 29.25 72.6799C27.55 72.6799 25.35 73.5799 24.25 74.6799Z" />
        <path
            d="M126.05 76.3799C125.25 77.3799 124.25 80.9799 123.95 84.2799C122.45 99.5799 114.15 111.38 98.05 121.18C94.15 123.58 93.65 127.18 96.85 129.28C98.65 130.58 99.65 130.38 105.35 127.48C109.35 125.58 114.15 121.98 117.95 117.98C126.95 108.88 131.35 99.8799 133.35 86.4799C134.35 79.3799 134.35 78.3799 132.75 76.6799C130.55 74.1799 128.05 74.1799 126.05 76.3799Z" />
        <path
            d="M29.85 96.7799C28.55 98.6799 28.55 99.4799 29.65 102.18C33.85 112.08 43.45 122.38 53.35 127.48C58.95 130.38 59.85 130.58 61.65 129.28C65.75 126.68 64.35 123.58 56.75 118.58C48.45 113.08 45.35 109.88 39.85 101.48C35.25 94.4799 32.45 93.1799 29.85 96.7799Z" />
        <path
            d="M74.25 124.68C69.95 128.98 73.15 136.68 79.25 136.68C83.05 136.68 86.25 133.48 86.25 129.68C86.25 125.88 83.05 122.68 79.25 122.68C77.55 122.68 75.35 123.58 74.25 124.68Z" />
    </symbol>

    <symbol width="200" height="160" viewBox="0 0 200 160" id='persons'
        xmlns="http://www.w3.org/2000/svg">
        <path
            d="M38.7559 0.710125C27.0559 4.51013 20.4559 13.2101 20.4559 24.8101C20.4559 32.0101 22.5559 37.4101 27.3559 42.2101C37.0559 51.8101 52.4559 51.8101 62.1559 42.2101C71.5559 32.7101 71.5559 16.9101 62.1559 7.41013C56.3559 1.61013 45.4559 -1.48988 38.7559 0.710125ZM53.4559 12.6101C57.7559 15.6101 60.0559 21.1101 59.4559 26.4101C58.5559 34.8101 51.4559 40.5101 43.1559 39.5101C23.9559 37.4101 26.5559 8.51013 45.8559 10.1101C48.4559 10.3101 51.8559 11.4101 53.4559 12.6101Z" />
        <path
            d="M154.756 0.710131C135.656 4.61013 128.656 28.4101 142.356 42.2101C151.856 51.6101 167.656 51.6101 177.156 42.2101C186.756 32.5101 186.756 17.1101 177.156 7.41013C171.556 1.81013 162.556 -0.889869 154.756 0.710131ZM168.456 12.6101C172.756 15.6101 175.056 21.1101 174.456 26.4101C173.556 34.8101 166.456 40.5101 158.156 39.5101C138.956 37.4101 141.556 8.51013 160.856 10.1101C163.456 10.3101 166.856 11.4101 168.456 12.6101Z" />
        <path
            d="M91.6559 41.1101C83.5559 43.4101 75.8559 50.3101 72.0559 58.8101C69.5559 64.3101 69.8559 76.2101 72.6559 82.0101C75.5559 88.1101 81.5559 94.0101 87.5559 97.0101C94.1559 100.21 105.356 100.21 111.956 97.0101C117.956 94.0101 123.956 88.1101 126.856 82.0101C130.056 75.4101 130.056 64.2101 126.856 57.6101C123.956 51.7101 117.956 45.6101 112.356 42.9101C106.956 40.2101 97.5559 39.4101 91.6559 41.1101ZM108.356 51.9101C114.956 55.1101 119.756 62.6101 119.756 69.8101C119.756 80.4101 110.356 89.8101 99.7559 89.8101C89.1559 89.8101 79.7559 80.4101 79.7559 69.8101C79.7559 55.4101 95.3559 45.6101 108.356 51.9101Z" />
        <path
            d="M27.856 60.9101C21.356 62.2101 15.256 65.5101 10.356 70.4101C4.95598 75.7101 2.05598 81.6101 0.655979 89.7101C-0.344021 95.2101 -0.244021 96.1101 1.25598 97.8101C5.05598 102.11 9.15598 99.2101 10.056 91.5101C11.156 83.1101 15.756 76.5101 23.256 72.5101C26.756 70.6101 29.156 70.3101 43.556 70.0101L59.756 69.6101V67.0101C59.756 65.5101 60.056 63.3101 60.356 62.0101L60.956 59.8101L46.656 59.9101C38.756 60.0101 30.256 60.4101 27.856 60.9101Z" />
        <path
            d="M139.156 62.0101C139.456 63.3101 139.756 65.5101 139.756 67.0101V69.6101L156.056 70.0101C169.456 70.3101 172.856 70.6101 175.756 72.2101C183.556 76.3101 188.356 83.0101 189.456 91.5101C190.356 99.2101 194.456 102.01 198.256 97.8101C199.756 96.1101 199.856 95.2101 198.856 89.7101C197.456 81.6101 194.556 75.7101 189.156 70.4101C180.856 62.0101 173.056 59.8101 151.956 59.8101H138.556L139.156 62.0101Z" />
        <path
            d="M72.0559 111.31C56.0559 114.81 43.5559 128.21 40.7559 145.01C39.3559 152.71 40.5559 156.41 44.7559 158.51C48.3559 160.31 151.156 160.31 154.756 158.51C158.956 156.41 160.156 152.71 158.756 145.01C155.956 127.91 143.456 114.81 126.956 111.31C118.056 109.41 80.8559 109.41 72.0559 111.31ZM130.956 122.51C140.556 126.91 147.356 135.71 149.256 146.01L149.956 149.81H99.7559H49.5559L50.2559 146.01C51.8559 137.11 57.1559 129.21 64.5559 124.61C71.5559 120.31 74.9559 119.91 101.256 120.11C124.556 120.31 126.556 120.51 130.956 122.51Z" />
    </symbol>

</svg>